<svg xmlns="http://www.w3.org/2000/svg" width="200" height="200" fill="none"><path d="M50 0C22.3 0 0 22.3 0 50v100c0 27.7 22.3 50 50 50h22.637c1.538-3.738 3.102-7.555 4.627-10.756 9.42-18.462-8.139-39.804-15.182-61.398-2.602-7.98-10.795-28.723-2.494-33.944 3.77-2.371 6.255 3.283 8.715 5.846 5.878 6.123 13.736 12.25 20.875 16.107 16.787 9.071 27.488 9.675 44.549 17.907 12.613 6.087 23.094 1.447 32.908-4.875.797 11.555-5.973 22.277-14.576 27.18l.425.962s20.925-4.755 20.85-2.877c-.118 2.937-3.695 8.802-9.23 15.008-5.683 6.372-12.945 10.43-18.567 11.611-1.822 5.961-4.673 12.523-8.252 19.229H150c27.7 0 50-22.3 50-50V50c0-27.7-22.3-50-50-50Zm9.947 41c1.167 0 2.119.35 2.852 1.05.767.667 1.148 1.534 1.148 2.6 0 1.067-.381 1.95-1.148 2.65-.733.7-1.685 1.05-2.852 1.05-1.167 0-2.131-.35-2.898-1.05-.733-.7-1.102-1.583-1.102-2.65 0-1.066.369-1.933 1.102-2.6.767-.7 1.731-1.05 2.898-1.05zm-37.25 1h7.25l7.75 16.15L45.398 42h7.15l-11.7 22.55V77h-6.4V64.55Zm80.399 0h6.85l-.75 23.95h-5.401zm-18.569 9.6c2.333 0 4.417.567 6.25 1.7 1.833 1.134 3.285 2.683 4.352 4.65 1.067 1.966 1.6 4.2 1.6 6.7s-.533 4.733-1.6 6.7c-1.067 1.933-2.519 3.466-4.352 4.6-1.833 1.1-3.917 1.65-6.25 1.65-1.867 0-3.498-.35-4.898-1.05a8.838 8.838 0 0 1-3.4-2.95V88h-6.4V52.2h5.698l.702 3.55c.8-1.1 1.85-2.067 3.15-2.9 1.333-.834 3.048-1.25 5.148-1.25zm-27.779.6h6.4V77h-6.4zm26.43 5c-2.067 0-3.767.7-5.1 2.1-1.3 1.367-1.95 3.133-1.95 5.3 0 2.166.65 3.95 1.95 5.35 1.333 1.366 3.033 2.05 5.1 2.05 2.033 0 3.718-.684 5.05-2.05 1.334-1.367 2-3.133 2-5.3 0-2.166-.666-3.95-2-5.35-1.332-1.4-3.017-2.1-5.05-2.1zm23.467 12.6c1.134 0 2.067.367 2.8 1.1.767.734 1.15 1.633 1.15 2.7 0 1.033-.383 1.917-1.15 2.65-.733.733-1.666 1.1-2.8 1.1-1.2 0-2.183-.367-2.95-1.1a3.614 3.614 0 0 1-1.1-2.65c0-1.067.367-1.966 1.1-2.7.767-.733 1.75-1.1 2.95-1.1zm-11.963 60.72c-1.538.305-2.509 2.305-.932 3.681 7.126 6.223 8.323 11.347 7.861 14.344-.38 2.473 2.723 5.18 5.092 1.656 1.376-2.049 1.954-5.094.592-8.37-2.28-4.659-4.657-6.952-10.96-10.966-.565-.36-1.14-.447-1.653-.345z" style="fill:url(#a)"/><defs><linearGradient id="a" x1="80.64" x2="316.918" y1="70" y2="83.55" gradientTransform="translate(-89.002)" gradientUnits="userSpaceOnUse"><stop stop-color="#0F6"/><stop offset=".995" stop-color="#149D14"/></linearGradient></defs></svg>