<svg xmlns="http://www.w3.org/2000/svg" width="200" height="195.043" fill="none"><path d="M50 0C22.3 0 0 22.3 0 50v100c0 19.918 11.56 36.992 28.336 45.043 5.178-10.953 12.09-17.889 12.09-17.889h-9.934c2.466-4.933 5.01-9.526 7.637-13.779-3.84-1.453-7.104-4.596-9.285-10.02-6.712-16.67-12.573-51.614-5.91-53.275.208-.052.456-.078.74-.08 7.745-.046 42.743 18.064 53.05 30.264 5.893-1.415 13.478-2.166 23.297-2.166h.014c9.794.003 17.369.751 23.246 2.162 10.693-12.648 47.904-31.642 53.785-30.18 6.662 1.661.801 36.605-5.906 53.275-2.177 5.41-5.428 8.554-9.256 10.012a173.829 173.829 0 0 1 7.672 13.787h-9.93s6.898 6.926 12.07 17.862C188.465 186.954 200 169.896 200 150V50c0-27.7-22.3-50-50-50Z" style="fill:url(#a)"/><defs><linearGradient id="a" x1="-8.362" x2="227.916" y1="70" y2="83.55" gradientUnits="userSpaceOnUse"><stop stop-color="#FF8702"/><stop offset="1" stop-color="#FF5C02"/></linearGradient></defs></svg>