<svg xmlns="http://www.w3.org/2000/svg" width="1002.26" height="195.043" fill="none"><path fill="url(#a)" d="M230.438 152V44.55h69.382v15.81h-49.734v30.086h40.217v15.504h-40.217V152Z" style="fill:url(#a)"/><path fill="url(#b)" d="M314.522 152V41.48h19.648V152Z" style="fill:url(#b)"/><path fill="url(#c)" d="M390.78 153.842c-7.368 0-14.02-1.689-19.955-5.066-5.833-3.377-10.49-8.033-13.969-13.968-3.377-6.038-5.065-12.996-5.065-20.876 0-7.88 1.739-14.787 5.219-20.722 3.479-6.038 8.135-10.745 13.968-14.122 5.935-3.377 12.587-5.066 19.955-5.066 7.266 0 13.815 1.689 19.648 5.066 5.935 3.377 10.592 8.084 13.969 14.122 3.479 5.935 5.219 12.842 5.219 20.722 0 7.88-1.74 14.838-5.219 20.876-3.377 5.935-8.034 10.591-13.969 13.968-5.935 3.377-12.536 5.066-19.801 5.066zm0-17.039c5.116 0 9.568-1.893 13.354-5.679 3.786-3.889 5.68-9.619 5.68-17.192s-1.894-13.252-5.68-17.039c-3.786-3.888-8.187-5.833-13.201-5.833-5.219 0-9.722 1.945-13.508 5.833-3.684 3.787-5.526 9.466-5.526 17.039 0 7.573 1.842 13.303 5.526 17.192 3.786 3.786 8.238 5.679 13.355 5.679z" style="fill:url(#c)"/><path fill="url(#d)" d="M483.869 153.842c-7.368 0-14.02-1.689-19.955-5.066-5.833-3.377-10.489-8.033-13.969-13.968-3.377-6.038-5.065-12.996-5.065-20.876 0-7.88 1.74-14.787 5.219-20.722 3.479-6.038 8.135-10.745 13.968-14.122 5.936-3.377 12.587-5.066 19.955-5.066 7.266 0 13.815 1.689 19.648 5.066 5.936 3.377 10.592 8.084 13.969 14.122 3.479 5.935 5.219 12.842 5.219 20.722 0 7.88-1.74 14.838-5.219 20.876-3.377 5.935-8.033 10.591-13.969 13.968-5.935 3.377-12.535 5.066-19.801 5.066zm0-17.039c5.117 0 9.568-1.893 13.354-5.679 3.787-3.889 5.68-9.619 5.68-17.192s-1.893-13.252-5.68-17.039c-3.786-3.888-8.186-5.833-13.201-5.833-5.219 0-9.721 1.945-13.508 5.833-3.684 3.787-5.526 9.466-5.526 17.039 0 7.573 1.842 13.303 5.526 17.192 3.787 3.786 8.238 5.679 13.355 5.679z" style="fill:url(#d)"/><path fill="url(#e)" d="M543.956 152V92.288h-10.438V75.864h10.438v-8.903c0-9.21 2.302-15.76 6.907-19.648 4.708-3.889 11.052-5.833 19.034-5.833h8.443v16.732h-5.373c-3.377 0-5.782.665-7.214 1.995-1.433 1.33-2.149 3.582-2.149 6.754v8.903h16.424v16.424h-16.424V152Z" style="fill:url(#e)"/><path fill="url(#f)" d="M632.626 152V44.55h70.149v15.81h-50.501v29.472h45.896v15.35h-45.896v31.007h50.501V152Z" style="fill:url(#f)"/><path fill="url(#g)" d="m713.693 152 27.63-38.068-27.63-38.068h21.03l19.341 27.016 19.187-27.016h21.183l-27.783 38.068L794.434 152h-21.183l-19.187-27.016L734.723 152Z" style="fill:url(#g)"/><path fill="url(#h)" d="M840.875 152c-7.982 0-14.378-1.944-19.187-5.833-4.81-3.889-7.215-10.796-7.215-20.723V92.288h-13.047V75.864h13.047l2.303-20.416h17.345v20.416h20.569v16.424h-20.569v33.31c0 3.684.768 6.242 2.303 7.675 1.637 1.33 4.4 1.995 8.289 1.995h9.517V152Z" style="fill:url(#h)"/><path fill="url(#i)" d="M871.56 152V75.864h17.499l1.842 14.275c2.763-4.911 6.498-8.8 11.205-11.665 4.81-2.968 10.438-4.452 16.885-4.452v20.723h-5.526c-4.298 0-8.135.665-11.512 1.995-3.377 1.33-6.038 3.633-7.982 6.907-1.842 3.275-2.763 7.829-2.763 13.662V152Z" style="fill:url(#i)"/><path fill="url(#j)" d="M958.668 153.842c-6.549 0-11.921-1.023-16.117-3.07-4.196-2.149-7.317-4.963-9.364-8.443-2.046-3.479-3.07-7.316-3.07-11.512 0-7.061 2.763-12.792 8.289-17.192s13.815-6.601 24.867-6.601h19.341v-1.842c0-5.218-1.483-9.056-4.451-11.512-2.968-2.456-6.652-3.684-11.052-3.684-3.991 0-7.47.972-10.438 2.917-2.968 1.841-4.81 4.604-5.526 8.288h-19.188c.512-5.526 2.354-10.335 5.526-14.428 3.275-4.094 7.471-7.215 12.587-9.364 5.117-2.251 10.848-3.377 17.192-3.377 10.848 0 19.393 2.712 25.635 8.136 6.242 5.423 9.361 13.098 9.361 23.024V152h-16.729l-1.842-12.28c-2.251 4.093-5.424 7.47-9.517 10.131-3.991 2.661-9.159 3.991-15.504 3.991zm4.452-15.35c5.628 0 9.977-1.842 13.047-5.526 3.173-3.684 5.168-8.238 5.987-13.662h-16.732c-5.219 0-8.954.973-11.205 2.917-2.251 1.842-3.377 4.144-3.377 6.907 0 2.968 1.126 5.271 3.377 6.908 2.251 1.637 5.219 2.456 8.903 2.456z" style="fill:url(#j)"/><path d="M50 0C22.3 0 0 22.3 0 50v100c0 19.918 11.56 36.992 28.336 45.043 5.178-10.953 12.09-17.889 12.09-17.889h-9.934c2.466-4.933 5.01-9.526 7.637-13.779-3.84-1.453-7.104-4.596-9.285-10.02-6.712-16.67-12.573-51.614-5.91-53.275.208-.052.456-.078.74-.08 7.745-.046 42.743 18.064 53.05 30.264 5.893-1.415 13.478-2.166 23.297-2.166h.014c9.794.003 17.369.751 23.246 2.162 10.693-12.648 47.904-31.642 53.785-30.18 6.662 1.661.801 36.605-5.906 53.275-2.177 5.41-5.428 8.554-9.256 10.012a173.829 173.829 0 0 1 7.672 13.787h-9.93s6.898 6.926 12.07 17.862C188.465 186.954 200 169.896 200 150V50c0-27.7-22.3-50-50-50Z" style="fill:url(#k)"/><defs><linearGradient id="a" x1="266.525" x2="275.326" y1="32" y2="151.351" gradientUnits="userSpaceOnUse"><stop stop-color="#FF8702"/><stop offset="1" stop-color="#FF5C02"/></linearGradient><linearGradient id="b" x1="266.525" x2="275.326" y1="32" y2="151.351" gradientUnits="userSpaceOnUse"><stop stop-color="#FF8702"/><stop offset="1" stop-color="#FF5C02"/></linearGradient><linearGradient id="c" x1="266.525" x2="275.326" y1="32" y2="151.351" gradientUnits="userSpaceOnUse"><stop stop-color="#FF8702"/><stop offset="1" stop-color="#FF5C02"/></linearGradient><linearGradient id="d" x1="266.525" x2="275.326" y1="32" y2="151.351" gradientUnits="userSpaceOnUse"><stop stop-color="#FF8702"/><stop offset="1" stop-color="#FF5C02"/></linearGradient><linearGradient id="e" x1="266.525" x2="275.326" y1="32" y2="151.351" gradientUnits="userSpaceOnUse"><stop stop-color="#FF8702"/><stop offset="1" stop-color="#FF5C02"/></linearGradient><linearGradient id="f" x1="266.525" x2="275.326" y1="32" y2="151.351" gradientUnits="userSpaceOnUse"><stop stop-color="#FF8702"/><stop offset="1" stop-color="#FF5C02"/></linearGradient><linearGradient id="g" x1="266.525" x2="275.326" y1="32" y2="151.351" gradientUnits="userSpaceOnUse"><stop stop-color="#FF8702"/><stop offset="1" stop-color="#FF5C02"/></linearGradient><linearGradient id="h" x1="266.525" x2="275.326" y1="32" y2="151.351" gradientUnits="userSpaceOnUse"><stop stop-color="#FF8702"/><stop offset="1" stop-color="#FF5C02"/></linearGradient><linearGradient id="i" x1="266.525" x2="275.326" y1="32" y2="151.351" gradientUnits="userSpaceOnUse"><stop stop-color="#FF8702"/><stop offset="1" stop-color="#FF5C02"/></linearGradient><linearGradient id="j" x1="266.525" x2="275.326" y1="32" y2="151.351" gradientUnits="userSpaceOnUse"><stop stop-color="#FF8702"/><stop offset="1" stop-color="#FF5C02"/></linearGradient><linearGradient id="k" x1="-8.362" x2="227.916" y1="70" y2="83.55" gradientUnits="userSpaceOnUse"><stop stop-color="#FF8702"/><stop offset="1" stop-color="#FF5C02"/></linearGradient></defs></svg>