<svg xmlns="http://www.w3.org/2000/svg" width="1013.77" height="195.041" fill="none"><path fill="url(#a)" d="M230.438 152V44.55h69.382v15.81h-49.734v30.086h40.217v15.504h-40.217V152Z" style="fill:url(#a)"/><path fill="url(#b)" d="M314.522 152V41.48h19.648V152Z" style="fill:url(#b)"/><path fill="url(#c)" d="M390.78 153.842c-7.368 0-14.02-1.689-19.955-5.066-5.833-3.377-10.49-8.033-13.969-13.968-3.377-6.038-5.065-12.996-5.065-20.876 0-7.88 1.739-14.787 5.219-20.722 3.479-6.038 8.135-10.745 13.968-14.122 5.935-3.377 12.587-5.066 19.955-5.066 7.266 0 13.815 1.689 19.648 5.066 5.935 3.377 10.592 8.084 13.969 14.122 3.479 5.935 5.219 12.842 5.219 20.722 0 7.88-1.74 14.838-5.219 20.876-3.377 5.935-8.034 10.591-13.969 13.968-5.935 3.377-12.536 5.066-19.801 5.066zm0-17.039c5.116 0 9.568-1.893 13.354-5.679 3.786-3.889 5.68-9.619 5.68-17.192s-1.894-13.252-5.68-17.039c-3.786-3.888-8.187-5.833-13.201-5.833-5.219 0-9.722 1.945-13.508 5.833-3.684 3.787-5.526 9.466-5.526 17.039 0 7.573 1.842 13.303 5.526 17.192 3.786 3.786 8.238 5.679 13.355 5.679z" style="fill:url(#c)"/><path fill="url(#d)" d="M483.869 153.842c-7.368 0-14.02-1.689-19.955-5.066-5.833-3.377-10.489-8.033-13.969-13.968-3.377-6.038-5.065-12.996-5.065-20.876 0-7.88 1.74-14.787 5.219-20.722 3.479-6.038 8.135-10.745 13.968-14.122 5.936-3.377 12.587-5.066 19.955-5.066 7.266 0 13.815 1.689 19.648 5.066 5.936 3.377 10.592 8.084 13.969 14.122 3.479 5.935 5.219 12.842 5.219 20.722 0 7.88-1.74 14.838-5.219 20.876-3.377 5.935-8.033 10.591-13.969 13.968-5.935 3.377-12.535 5.066-19.801 5.066zm0-17.039c5.117 0 9.568-1.893 13.354-5.679 3.787-3.889 5.68-9.619 5.68-17.192s-1.893-13.252-5.68-17.039c-3.786-3.888-8.186-5.833-13.201-5.833-5.219 0-9.721 1.945-13.508 5.833-3.684 3.787-5.526 9.466-5.526 17.039 0 7.573 1.842 13.303 5.526 17.192 3.787 3.786 8.238 5.679 13.355 5.679z" style="fill:url(#d)"/><path fill="url(#e)" d="M543.956 152V92.288h-10.438V75.864h10.438v-8.903c0-9.21 2.302-15.76 6.907-19.648 4.708-3.889 11.052-5.833 19.034-5.833h8.443v16.732h-5.373c-3.377 0-5.782.665-7.214 1.995-1.433 1.33-2.149 3.582-2.149 6.754v8.903h16.424v16.424h-16.424V152Z" style="fill:url(#e)"/><path fill="url(#f)" d="M632.626 152V44.55h43.133c11.155 0 19.648 2.61 25.481 7.829 5.936 5.116 8.903 11.717 8.903 19.801 0 6.754-1.842 12.178-5.526 16.271-3.581 3.991-7.982 6.703-13.201 8.136 6.14 1.227 11.206 4.297 15.197 9.209 3.991 4.81 5.986 10.438 5.986 16.885 0 8.494-3.07 15.504-9.21 21.03-6.14 5.526-14.838 8.289-26.095 8.289zm19.648-62.321h20.569c5.526 0 9.773-1.28 12.74-3.837 2.968-2.559 4.452-6.192 4.452-10.899 0-4.503-1.484-8.033-4.452-10.591-2.865-2.661-7.214-3.992-13.047-3.992h-20.262zm0 46.357h21.95c5.833 0 10.336-1.33 13.508-3.991 3.275-2.763 4.912-6.601 4.912-11.513 0-5.014-1.688-8.954-5.065-11.819-3.377-2.865-7.931-4.298-13.662-4.298h-21.643z" style="fill:url(#f)"/><path fill="url(#g)" d="M755.251 153.842c-6.549 0-11.922-1.023-16.118-3.07-4.195-2.149-7.316-4.963-9.363-8.443-2.047-3.479-3.07-7.316-3.07-11.512 0-7.061 2.763-12.792 8.289-17.192s13.815-6.601 24.867-6.601h19.341v-1.842c0-5.218-1.484-9.056-4.452-11.512-2.967-2.456-6.651-3.684-11.052-3.684-3.991 0-7.47.972-10.438 2.917-2.967 1.841-4.809 4.604-5.526 8.288h-19.187c.512-5.526 2.354-10.335 5.526-14.428 3.275-4.094 7.47-7.215 12.587-9.364 5.117-2.251 10.847-3.377 17.192-3.377 10.847 0 19.392 2.712 25.634 8.136 6.243 5.423 9.364 13.098 9.364 23.024V152h-16.732l-1.842-12.28c-2.251 4.093-5.423 7.47-9.517 10.131-3.991 2.661-9.158 3.991-15.503 3.991zm4.451-15.35c5.629 0 9.978-1.842 13.048-5.526 3.172-3.684 5.168-8.238 5.986-13.662h-16.731c-5.219 0-8.954.973-11.206 2.917-2.251 1.842-3.377 4.144-3.377 6.907 0 2.968 1.126 5.271 3.377 6.908 2.252 1.637 5.219 2.456 8.903 2.456z" style="fill:url(#g)"/><path fill="url(#h)" d="M849.062 153.842c-6.754 0-12.689-1.075-17.806-3.224-5.117-2.251-9.21-5.321-12.28-9.21-3.07-3.888-4.912-8.391-5.526-13.508h19.802c.614 2.968 2.251 5.526 4.912 7.675 2.763 2.047 6.293 3.07 10.591 3.07 4.298 0 7.419-.869 9.364-2.609 2.046-1.74 3.07-3.735 3.07-5.987 0-3.274-1.433-5.474-4.298-6.6-2.866-1.228-6.857-2.405-11.973-3.531a130.76 130.76 0 0 1-9.978-2.609c-3.377-1.023-6.498-2.303-9.363-3.838-2.763-1.637-5.015-3.684-6.754-6.14-1.74-2.558-2.61-5.679-2.61-9.363 0-6.754 2.661-12.433 7.982-17.038 5.424-4.605 12.996-6.908 22.718-6.908 9.005 0 16.169 2.098 21.49 6.294 5.424 4.195 8.647 9.977 9.671 17.345H859.5c-1.125-5.628-5.372-8.442-12.74-8.442-3.684 0-6.55.716-8.596 2.149-1.945 1.432-2.917 3.223-2.917 5.372 0 2.251 1.484 4.042 4.452 5.372 2.967 1.331 6.907 2.559 11.819 3.684 5.322 1.228 10.182 2.61 14.583 4.145 4.502 1.433 8.084 3.633 10.745 6.6 2.66 2.866 3.991 7.01 3.991 12.434.102 4.707-1.126 8.954-3.684 12.74-2.559 3.787-6.243 6.754-11.052 8.903-4.81 2.149-10.489 3.224-17.039 3.224z" style="fill:url(#h)"/><path fill="url(#i)" d="M908.834 64.044c-3.582 0-6.55-1.074-8.903-3.223-2.252-2.149-3.377-4.86-3.377-8.136 0-3.274 1.125-5.935 3.377-7.982 2.353-2.149 5.321-3.223 8.903-3.223 3.581 0 6.498 1.075 8.749 3.224 2.354 2.046 3.531 4.707 3.531 7.981 0 3.275-1.177 5.987-3.531 8.136-2.251 2.149-5.168 3.224-8.749 3.224zM899.01 152V75.864h19.648V152Z" style="fill:url(#i)"/><path fill="url(#j)" d="M976.466 153.842c-7.777 0-14.634-1.689-20.569-5.066-5.935-3.377-10.643-8.084-14.122-14.122-3.377-6.037-5.066-12.945-5.066-20.722 0-7.777 1.689-14.685 5.066-20.723 3.479-6.037 8.187-10.745 14.122-14.122 5.935-3.377 12.792-5.065 20.569-5.065 9.722 0 17.908 2.558 24.564 7.675 6.65 5.014 10.89 11.973 12.74 20.876h-20.726c-1.023-3.684-3.07-6.55-6.14-8.596-2.968-2.149-6.498-3.224-10.592-3.224-5.423 0-10.028 2.047-13.815 6.14-3.786 4.094-5.679 9.773-5.679 17.039 0 7.266 1.893 12.945 5.679 17.038 3.787 4.094 8.392 6.14 13.815 6.14 4.094 0 7.624-1.023 10.592-3.07 3.07-2.046 5.117-4.963 6.14-8.749h20.726c-1.85 8.596-6.09 15.503-12.74 20.722-6.656 5.219-14.842 7.829-24.564 7.829z" style="fill:url(#j)"/><path d="M50 0C22.3 0 0 22.3 0 50v100c0 19.917 11.559 36.99 28.334 45.041 5.178-10.953 12.092-17.887 12.092-17.887h-9.934c2.466-4.933 5.01-9.526 7.637-13.779-3.84-1.453-7.104-4.596-9.285-10.02-6.712-16.67-12.573-51.614-5.91-53.275.208-.052.456-.078.74-.08 7.745-.046 42.743 18.064 53.05 30.264 5.893-1.415 13.478-2.166 23.297-2.166h.014c9.794.003 17.365.75 23.25 2.158 10.698-12.648 47.9-31.638 53.781-30.176 6.662 1.661.801 36.605-5.906 53.275-2.173 5.4-5.415 8.542-9.232 10.004 2.63 4.257 5.179 8.856 7.648 13.795h-9.93s6.898 6.926 12.07 17.862C188.465 186.954 200 169.896 200 150V50c0-27.7-22.3-50-50-50Z" style="fill:url(#k)"/><defs><linearGradient id="a" x1="267.112" x2="275.805" y1="32" y2="151.367" gradientUnits="userSpaceOnUse"><stop stop-color="#09F"/><stop offset="1" stop-color="#09F"/></linearGradient><linearGradient id="b" x1="267.112" x2="275.805" y1="32" y2="151.367" gradientUnits="userSpaceOnUse"><stop stop-color="#09F"/><stop offset="1" stop-color="#09F"/></linearGradient><linearGradient id="c" x1="267.112" x2="275.805" y1="32" y2="151.367" gradientUnits="userSpaceOnUse"><stop stop-color="#09F"/><stop offset="1" stop-color="#09F"/></linearGradient><linearGradient id="d" x1="267.112" x2="275.805" y1="32" y2="151.367" gradientUnits="userSpaceOnUse"><stop stop-color="#09F"/><stop offset="1" stop-color="#09F"/></linearGradient><linearGradient id="e" x1="267.112" x2="275.805" y1="32" y2="151.367" gradientUnits="userSpaceOnUse"><stop stop-color="#09F"/><stop offset="1" stop-color="#09F"/></linearGradient><linearGradient id="f" x1="267.112" x2="275.805" y1="32" y2="151.367" gradientUnits="userSpaceOnUse"><stop stop-color="#09F"/><stop offset="1" stop-color="#09F"/></linearGradient><linearGradient id="g" x1="267.112" x2="275.805" y1="32" y2="151.367" gradientUnits="userSpaceOnUse"><stop stop-color="#09F"/><stop offset="1" stop-color="#09F"/></linearGradient><linearGradient id="h" x1="267.112" x2="275.805" y1="32" y2="151.367" gradientUnits="userSpaceOnUse"><stop stop-color="#09F"/><stop offset="1" stop-color="#09F"/></linearGradient><linearGradient id="i" x1="267.112" x2="275.805" y1="32" y2="151.367" gradientUnits="userSpaceOnUse"><stop stop-color="#09F"/><stop offset="1" stop-color="#09F"/></linearGradient><linearGradient id="j" x1="267.112" x2="275.805" y1="32" y2="151.367" gradientUnits="userSpaceOnUse"><stop stop-color="#09F"/><stop offset="1" stop-color="#09F"/></linearGradient><linearGradient id="k" x1="-8.362" x2="227.916" y1="70" y2="83.55" gradientUnits="userSpaceOnUse"><stop stop-color="#09F"/><stop offset="1" stop-color="#09F"/></linearGradient></defs></svg>