<svg xmlns="http://www.w3.org/2000/svg" width="118" height="108" fill="none"><path fill="#000" d="M38.072 11.023c2.106 3.035 4.679 10.036 9.295 13.538-7.353-3.458-11.364-2.975-18.99-1.15-13.114-2.335-21.823 4.76-19.26 21.425a93.056 93.056 0 0 0-2.587 5.668c-3.027 6.036-4.81 11.978-5.284 18.27C-.16 76.98-.324 85.128.493 93.23c9.007 6.283 19.087 11.06 29.804 14.125a67.462 67.462 0 0 0 6.383-9.716 65.106 65.106 0 0 1-10.051-4.532c.843-.577 1.668-1.172 2.465-1.75 18.871 8.38 40.716 8.38 59.588 0a34.827 34.827 0 0 0 2.465 1.75 65.348 65.348 0 0 1-10.07 4.54 66.793 66.793 0 0 0 6.382 9.708c10.726-3.053 20.813-7.828 29.821-14.117 2.14-20.954-2.662-39.465-12.826-56.093-.32-5.618 3.057-9.864-3.145-13.405-4.12-2.351-17.468-1.162-24.23-3.672-6.068-2.253-8.847-5.188-14.424-6.87l1.622 6.661c-4.328-2.774-14.319-7.941-26.205-8.836Z"/><path fill="#000" fill-rule="evenodd" d="M107.954 49.633c-6.764-1.278-4.623-15.396-5.005-20.281l-4.143-8.255c-3.475 4.08-20.48 10.98-25.191 4.152C84.613 7.393 111.25-1.981 115.544.352c4.751 2.583 1.803 33.47-7.59 49.281Z" clip-rule="evenodd"/><path fill="#000" fill-rule="evenodd" d="M112.945 3.952c1.252.615 1.665 4.937.979 11.587-1.125 10.91-10.815 14.701-10.966 26.19-.226-3.054-.047-6.298-.613-8.426-2.52 2.523-8.802 2.662-10.76 1.876.08-2.681 2.396-7.971 3.746-10.003-2.795.155-8.02 2.443-12.847 3.055 7.1-2.51 10.01-14.079 15.466-18.388 4.284-3.383 11.348-5.947 14.1-6.018.393-.01.699.03.895.127ZM2.237.352c4.293-2.334 30.931 7.04 41.93 24.897-4.712 6.829-21.716-.073-25.192-4.152l-4.143 8.255c-.382 4.885 1.759 19.003-5.005 20.281C.434 33.821-2.513 2.935 2.237.353Z" clip-rule="evenodd"/><path fill="#000" fill-rule="evenodd" d="M5.731 3.825c2.752.071 9.816 2.635 14.1 6.018 5.457 4.31 8.366 15.878 15.466 18.388-4.826-.612-10.051-2.9-12.846-3.055 1.35 2.032 3.666 7.322 3.745 10.003-1.958.786-8.24.647-10.76-1.876-.566 2.128-.387 5.372-.613 8.427-.15-11.49-9.84-15.28-10.966-26.19-.686-6.651-.273-10.973.979-11.587.196-.097.502-.138.895-.128Zm60.783 61.971c.22 1.564-4.653 7.874-8.27 7.874-3.496 0-7.983-6.484-7.719-8.038.69-4.058 15.383-4.143 15.989.164Zm6.838-12.51c-1.255-4.875 1.062-10.18 5.175-11.85 4.113-1.67 8.464.928 9.719 5.802 1.255 4.875-1.063 10.18-5.175 11.85-4.113 1.67-8.464-.928-9.719-5.802ZM29.258 53.1c-1.254-4.874 1.063-10.18 5.175-11.85 4.113-1.67 8.465.929 9.72 5.803 1.254 4.875-1.063 10.18-5.176 11.85s-8.464-.928-9.719-5.803Z" clip-rule="evenodd"/><path fill="#000" d="M41.767 46.427c1.422 3.328 2.274 9.865.084 14.643-1.673 3.65-2.195 8.693-.627 11.895m35.303.073c1.612-3.198 1.094-8.29-.592-11.968-2.19-4.778-1.338-11.315.085-14.643m-2.3 34.257c-.994 1.224-4.779 6.413-8.06 8.945-3.095-2.377-5.874-7.644-7.329-9.097-2.29 2.802-4.73 6.518-7.885 8.798-2.129-2.458-4.507-6.285-5.607-9.39"/></svg>