<svg xmlns="http://www.w3.org/2000/svg" width="200" height="200" fill="none"><path d="M20 0C8.92 0 0 8.92 0 20v160c0 11.08 8.92 20 20 20h160c11.08 0 20-8.92 20-20V20c0-11.08-8.92-20-20-20H20zm25.002 46.002c6.986-.143 27.766 8.102 38.43 22.691 1.514.411 3.123 1.015 4.935 1.868-4.616-3.502-7.19-10.503-9.295-13.538 11.886.895 21.876 6.062 26.205 8.836l-1.623-6.662c5.577 1.683 8.357 4.618 14.426 6.871.085.032.182.058.27.088 12.37-14.516 34.331-21.905 38.195-19.804 4.467 2.428 2.125 29.877-5.979 46.293 6.599 14.115 9.454 29.545 7.713 46.593-9.008 6.29-19.094 11.064-29.82 14.117a66.82 66.82 0 0 1-6.383-9.709 65.234 65.234 0 0 0 10.07-4.539 34.642 34.642 0 0 1-2.464-1.75c-18.872 8.38-40.717 8.38-59.588 0a110.05 110.05 0 0 1-2.465 1.75 65.102 65.102 0 0 0 10.05 4.532 67.484 67.484 0 0 1-6.382 9.716C60.58 150.29 50.5 145.513 41.494 139.23c-.818-8.1-.654-16.25.752-24.457.473-6.29 2.258-12.232 5.285-18.27a87.334 87.334 0 0 1 1.705-3.82c-8.12-16.41-10.47-43.9-6-46.331.403-.22 1.002-.334 1.766-.35z" style="fill:#000"/></svg>