<svg xmlns="http://www.w3.org/2000/svg" width="200" height="200" fill="none"><path d="M20 0C8.92 0 0 8.92 0 20v160c0 11.08 8.92 20 20 20h160c11.08 0 20-8.92 20-20V20c0-11.08-8.92-20-20-20Zm25.002 46.002c6.986-.143 27.766 8.102 38.43 22.691 1.514.411 3.123 1.015 4.935 1.868-4.616-3.502-7.189-10.503-9.295-13.538 11.886.895 21.876 6.062 26.205 8.836l-1.623-6.662c5.577 1.683 8.357 4.618 14.426 6.871.085.032.184.056.272.086 11.082-13.003 29.857-20.287 36.427-20.152.764.016 1.363.13 1.766.35 4.467 2.428 2.125 29.875-5.979 46.29 6.6 14.117 9.454 29.547 7.713 46.596-9.008 6.29-19.094 11.064-29.82 14.117a66.82 66.82 0 0 1-6.383-9.709 65.234 65.234 0 0 0 10.07-4.539 34.642 34.642 0 0 1-2.464-1.75c-18.872 8.38-40.716 8.38-59.588 0-.797.578-1.622 1.173-2.465 1.75a65.08 65.08 0 0 0 10.05 4.532 67.501 67.501 0 0 1-6.382 9.716c-10.717-3.065-20.798-7.842-29.805-14.125-.817-8.1-.652-16.25.754-24.457.473-6.29 2.256-12.232 5.283-18.27a86.87 86.87 0 0 1 1.705-3.82c-8.12-16.41-10.468-43.9-5.998-46.331.403-.22 1.002-.334 1.766-.35Z" style="fill:#f60"/></svg>