<svg xmlns="http://www.w3.org/2000/svg" width="892" height="200" fill="none"><path d="M286 0c-11.08 0-20 8.92-20 20v160c0 11.08 8.92 20 20 20h366c11.08 0 20-8.92 20-20V20c0-11.08-8.92-20-20-20H286zm336.232 41.48h19.649V152h-17.498l-2.15-10.898c-2.457 3.377-5.73 6.344-9.825 8.902-3.99 2.559-9.21 3.838-15.656 3.838-7.163 0-13.56-1.74-19.188-5.219-5.629-3.479-10.078-8.237-13.353-14.275-3.274-6.037-4.912-12.896-4.912-20.57 0-7.676 1.638-14.48 4.912-20.415 3.275-6.037 7.724-10.746 13.353-14.123 5.628-3.48 12.025-5.219 19.188-5.219 5.731 0 10.745 1.076 15.043 3.225 4.298 2.15 7.777 5.168 10.437 9.057V41.48zm-277.134 1.227c12.894 0 23.435 3.225 31.62 9.672 8.29 6.345 13.458 15.298 15.505 26.861h-21.645c-1.33-5.833-4.195-10.385-8.596-13.66-4.298-3.377-10.029-5.066-17.193-5.066-9.926 0-17.703 3.377-23.332 10.13-5.628 6.755-8.441 16.015-8.441 27.784 0 11.768 2.813 21.03 8.441 27.785 5.629 6.652 13.406 9.976 23.332 9.976 7.164 0 12.895-1.535 17.193-4.605 4.401-3.172 7.266-7.52 8.596-13.047h21.645c-2.047 11.052-7.215 19.7-15.504 25.942-8.186 6.243-18.727 9.363-31.621 9.363-10.847 0-20.16-2.303-27.938-6.908-7.777-4.707-13.763-11.206-17.959-19.495-4.196-8.39-6.295-18.062-6.295-29.011 0-10.95 2.1-20.619 6.295-29.01 4.196-8.391 10.182-14.941 17.96-19.648 7.777-4.708 17.09-7.063 27.937-7.063zM445.84 74.021c7.266 0 13.815 1.69 19.648 5.067 5.936 3.377 10.592 8.083 13.969 14.121 3.479 5.935 5.219 12.843 5.219 20.723 0 7.88-1.74 14.839-5.219 20.877-3.377 5.935-8.033 10.59-13.969 13.966-5.935 3.377-12.536 5.067-19.8 5.067-7.368 0-14.02-1.69-19.956-5.067-5.833-3.377-10.488-8.031-13.968-13.966-3.377-6.038-5.067-12.997-5.067-20.877 0-7.88 1.741-14.788 5.221-20.723 3.479-6.038 8.134-10.744 13.967-14.121 5.936-3.377 12.587-5.067 19.955-5.067zm103.836 0v20.723h-5.528c-4.298 0-8.134.666-11.511 1.996-3.377 1.33-6.039 3.632-7.983 6.906-1.842 3.275-2.763 7.83-2.763 13.663V152h-19.649V75.863h17.5l1.842 14.276c2.763-4.912 6.497-8.801 11.205-11.666 4.81-2.968 10.44-4.452 16.887-4.452zM445.84 91.061c-5.22 0-9.721 1.943-13.508 5.832-3.684 3.786-5.525 9.466-5.525 17.039 0 7.573 1.841 13.302 5.525 17.191 3.787 3.786 8.238 5.68 13.356 5.68 5.115 0 9.567-1.894 13.353-5.68 3.787-3.889 5.68-9.618 5.68-17.191 0-7.573-1.893-13.253-5.68-17.04-3.786-3.888-8.186-5.831-13.201-5.831zm155.056.154c-6.243 0-11.41 2.097-15.503 6.293-4.093 4.195-6.14 9.618-6.14 16.27 0 6.651 2.047 12.127 6.14 16.425 4.094 4.298 9.26 6.447 15.503 6.447 6.344 0 11.513-2.099 15.504-6.295 4.094-4.298 6.14-9.771 6.14-16.423 0-6.652-2.046-12.076-6.14-16.272-3.99-4.298-9.16-6.445-15.504-6.445z" style="fill:#f60"/><path fill="#FF5C00" d="M.438 152V44.55H69.82v15.81H20.086v30.087h40.217v15.503H20.086V152H.438ZM117.008 153.842c-7.368 0-14.02-1.689-19.955-5.066-5.833-3.377-10.49-8.033-13.968-13.968-3.377-6.038-5.066-12.996-5.066-20.876 0-7.88 1.74-14.787 5.219-20.722 3.48-6.038 8.136-10.745 13.969-14.122 5.935-3.377 12.587-5.066 19.955-5.066 7.265 0 13.815 1.688 19.648 5.066 5.935 3.377 10.591 8.084 13.968 14.122 3.479 5.935 5.219 12.842 5.219 20.722 0 7.88-1.74 14.838-5.219 20.876-3.377 5.935-8.033 10.591-13.968 13.968-5.936 3.377-12.536 5.066-19.802 5.066Zm0-17.039c5.117 0 9.568-1.893 13.355-5.679 3.786-3.889 5.679-9.619 5.679-17.192s-1.893-13.252-5.679-17.038c-3.787-3.89-8.187-5.834-13.201-5.834-5.219 0-9.722 1.945-13.508 5.834-3.684 3.786-5.526 9.465-5.526 17.038s1.841 13.303 5.526 17.192c3.786 3.786 8.237 5.679 13.354 5.679ZM162.303 152l27.63-38.068-27.63-38.068h21.029l19.341 27.016 19.188-27.016h21.183l-27.784 38.068L243.044 152h-21.183l-19.188-27.016L183.332 152h-21.029Z"/><path d="M712 0c-11.08 0-20 8.92-20 20v160c0 11.08 8.92 20 20 20h160c11.08 0 20-8.92 20-20V20c0-11.08-8.92-20-20-20H712zm25.002 46.002c6.986-.143 27.766 8.102 38.43 22.691 1.514.411 3.123 1.015 4.935 1.868-4.616-3.502-7.189-10.503-9.295-13.538 11.886.895 21.876 6.062 26.205 8.836l-1.623-6.662c5.577 1.683 8.357 4.618 14.426 6.871.085.032.184.056.272.086 11.082-13.003 29.857-20.287 36.427-20.152.764.016 1.363.13 1.766.35 4.467 2.428 2.125 29.875-5.979 46.29 6.6 14.117 9.454 29.547 7.713 46.596-9.008 6.29-19.094 11.064-29.82 14.117a66.82 66.82 0 0 1-6.383-9.709 65.234 65.234 0 0 0 10.07-4.539 34.642 34.642 0 0 1-2.464-1.75c-18.872 8.38-40.716 8.38-59.588 0-.797.578-1.622 1.173-2.465 1.75a65.08 65.08 0 0 0 10.05 4.532 67.501 67.501 0 0 1-6.382 9.716c-10.717-3.065-20.798-7.842-29.805-14.125-.817-8.1-.652-16.25.754-24.457.473-6.29 2.256-12.232 5.283-18.27a86.87 86.87 0 0 1 1.705-3.82c-8.12-16.41-10.468-43.9-5.998-46.331.403-.22 1.002-.334 1.766-.35z" style="fill:#f60"/></svg>