<svg xmlns="http://www.w3.org/2000/svg" width="200" height="200" fill="none"><path d="M50 0C22.3 0 0 22.3 0 50v100c0 27.677 22.264 49.959 49.932 49.996 1.42-3.423 2.844-6.794 4.244-9.73 12.193-23.893-10.533-51.515-19.647-79.461-3.367-10.327-13.973-37.174-3.23-43.93 4.88-3.07 8.097 4.25 11.281 7.566 7.607 7.925 17.775 15.853 27.014 20.846 21.726 11.74 35.573 12.52 57.654 23.174 16.323 7.877 29.889 1.872 42.59-6.31 1.03 14.954-7.731 28.832-18.865 35.175l.55 1.248s27.082-6.154 26.985-3.724c-.153 3.8-4.783 11.39-11.946 19.421-7.355 8.247-16.75 13.5-24.027 15.028-1.979 6.473-4.858 13.487-8.46 20.701H150c27.7 0 50-22.3 50-50V50c0-27.7-22.3-50-50-50Zm27.762 114.264c-2.525-.489-4.628 2.687-2.248 4.765 9.222 8.054 10.77 14.686 10.173 18.565-.493 3.2 3.525 6.703 6.59 2.142 1.781-2.65 2.529-6.592.766-10.834-2.949-6.027-6.03-8.994-14.186-14.19a3.157 3.157 0 0 0-1.095-.448z" style="fill:url(#a)"/><defs><linearGradient id="a" x1="152.638" x2="388.916" y1="70" y2="83.55" gradientTransform="translate(-161)" gradientUnits="userSpaceOnUse"><stop stop-color="#0F6"/><stop offset=".995" stop-color="#149D14"/></linearGradient></defs></svg>