<svg xmlns="http://www.w3.org/2000/svg" width="491.994" height="200" fill="none"><path fill="url(#a)" d="M258.222 152v-38.222L222.149 44.55h22.258l23.792 49.58 23.639-49.58h21.951l-35.919 69.228V152Zm78.285-87.956c-3.582 0-6.55-1.074-8.903-3.223-2.252-2.149-3.377-4.86-3.377-8.136 0-3.274 1.125-5.935 3.377-7.982 2.353-2.149 5.321-3.223 8.903-3.223 3.581 0 6.498 1.075 8.749 3.224 2.354 2.046 3.531 4.707 3.531 7.981 0 3.275-1.177 5.987-3.531 8.136-2.251 2.149-5.168 3.224-8.749 3.224zM326.683 152V75.864h19.648V152Zm40.155 33.77V75.864h17.499l2.149 10.899c2.456-3.378 5.68-6.345 9.671-8.904 4.093-2.558 9.363-3.837 15.81-3.837 7.164 0 13.56 1.74 19.188 5.219 5.628 3.48 10.08 8.238 13.354 14.275 3.275 6.038 4.912 12.894 4.912 20.569 0 7.675-1.637 14.532-4.912 20.569-3.274 5.936-7.726 10.643-13.354 14.122-5.628 3.377-12.024 5.066-19.188 5.066-5.73 0-10.745-1.075-15.043-3.224s-7.777-5.167-10.438-9.056v44.208zm40.985-49.12c6.242 0 11.41-2.098 15.503-6.294 4.094-4.195 6.14-9.619 6.14-16.271 0-6.651-2.046-12.126-6.14-16.424-4.093-4.298-9.261-6.447-15.503-6.447-6.345 0-11.564 2.149-15.657 6.447-3.991 4.196-5.987 9.619-5.987 16.271 0 6.652 1.996 12.126 5.987 16.424 4.093 4.196 9.312 6.294 15.657 6.294zm63.295-18.574-2.149-73.526h21.029l-2.302 73.526zm8.749 34.999c-3.684 0-6.703-1.126-9.056-3.378-2.252-2.251-3.377-4.963-3.377-8.135 0-3.275 1.125-6.038 3.377-8.289 2.353-2.251 5.372-3.377 9.056-3.377 3.479 0 6.345 1.126 8.596 3.377 2.354 2.251 3.531 5.014 3.531 8.289 0 3.172-1.177 5.884-3.531 8.135-2.251 2.252-5.117 3.378-8.596 3.378z" style="fill:url(#a)"/><path d="M50 0C22.3 0 0 22.3 0 50v100c0 27.677 22.264 49.959 49.932 49.996 1.42-3.423 2.844-6.794 4.244-9.73 12.193-23.893-10.533-51.515-19.647-79.461-3.367-10.327-13.973-37.174-3.23-43.93 4.88-3.07 8.097 4.25 11.281 7.566 7.607 7.925 17.775 15.853 27.014 20.846 21.726 11.74 35.573 12.52 57.654 23.174 16.323 7.877 29.889 1.872 42.59-6.31 1.03 14.954-7.731 28.832-18.865 35.175l.55 1.248s27.082-6.154 26.985-3.724c-.153 3.8-4.783 11.39-11.946 19.421-7.355 8.247-16.75 13.5-24.027 15.028-1.979 6.473-4.858 13.487-8.46 20.701H150c27.7 0 50-22.3 50-50V50c0-27.7-22.3-50-50-50Zm27.762 114.264c-2.525-.489-4.628 2.687-2.248 4.765 9.222 8.054 10.77 14.686 10.173 18.565-.493 3.2 3.525 6.703 6.59 2.142 1.781-2.65 2.529-6.592.766-10.834-2.949-6.027-6.03-8.994-14.186-14.19a3.157 3.157 0 0 0-1.095-.448z" style="fill:url(#b)"/><defs><linearGradient id="a" x1="522.5" x2="522.5" y1="0" y2="200" gradientTransform="translate(-161)" gradientUnits="userSpaceOnUse"><stop stop-color="#1CAA1C"/><stop offset="1" stop-color="#3EFF3E"/></linearGradient><linearGradient id="b" x1="152.638" x2="388.916" y1="70" y2="83.55" gradientTransform="translate(-161)" gradientUnits="userSpaceOnUse"><stop stop-color="#0F6"/><stop offset=".995" stop-color="#149D14"/></linearGradient></defs></svg>