<svg xmlns="http://www.w3.org/2000/svg" xmlns:xlink="http://www.w3.org/1999/xlink" width="128" height="128"><defs><linearGradient id="b"><stop offset="0" style="stop-color:#ff7505;stop-opacity:1"/><stop offset="1" style="stop-color:#ff8702;stop-opacity:1"/></linearGradient><linearGradient xlink:href="#b" id="a" x1="114.287" x2="95.348" y1="112.444" y2="85.856" gradientTransform="rotate(-7.254 3097.988 -1639.405)scale(.98599)" gradientUnits="userSpaceOnUse"/><clipPath id="c" clipPathUnits="userSpaceOnUse"><path d="M151.144.34c-4.874-2.571-34.78 8.383-46.926 28.677 5.41 7.633 19.064-.123 24.54-.495-1.497 2.31-4.037 8.31-4.088 11.335 2.224.859 9.32.612 12.132-2.27 1.5 5.356-1.156 17.091 6.49 18.436 10.366-17.966 13.247-52.839 7.852-55.684z" style="opacity:1;fill:#333;fill-opacity:1;fill-rule:evenodd;stroke:none;stroke-width:2.79999995;stroke-linecap:round;stroke-linejoin:round;stroke-miterlimit:4;stroke-dasharray:none;stroke-dashoffset:0;stroke-opacity:1;paint-order:markers stroke fill"/></clipPath></defs><path d="M10.964.274c6.228-2.55 22.311 20.04 39.815 25.733l-33.59 20.318C10.784 36.455 5.32 2.585 10.964.274Z" style="opacity:1;fill:#313131;fill-opacity:1;fill-rule:evenodd;stroke:none;stroke-width:2.79999971;stroke-linecap:round;stroke-linejoin:round;stroke-miterlimit:4;stroke-dasharray:none;stroke-dashoffset:0;stroke-opacity:1;paint-order:markers stroke fill"/><path d="M126.186 69.477c0 13.122-2.81 14.406-2.81 21.727 0 7.416 3.232 9.752 1.851 14.906-1.722 6.427-11.51 15.104-31.845 18.975-19.275 3.669-44.084 3.662-56.793 1.163-12.789-2.516-33.163-9.83-35.487-20.39-3.306-15.017 1.039-36.863 10.17-52.697 8.635-14.977 18.993-24.803 32.806-24.338l-13.768-3.33c10.006-2.486 14.431-3.465 23.292.754-5.124-3.936-7.98-11.805-10.317-15.215 13.193 1.005 24.282 6.812 29.086 9.93l-1.8-7.487c6.19 1.892 8.916 6.135 16.01 7.344 18.49 3.387 39.605 19.943 39.605 48.658" style="opacity:1;fill:#ff8702;fill-opacity:1;fill-rule:evenodd;stroke:none;stroke-width:2.79999971;stroke-linecap:round;stroke-linejoin:round;stroke-miterlimit:4;stroke-dasharray:none;stroke-dashoffset:0;stroke-opacity:1;paint-order:markers stroke fill"/><path d="M125.277.387c-4.98-2.626-35.531 8.564-47.94 29.296 5.528 7.798 19.476-.126 25.07-.505-1.53 2.36-4.124 8.49-4.176 11.58 2.272.877 9.52.624 12.394-2.32 1.532 5.472-1.18 17.46 6.63 18.833 10.59-18.353 13.533-53.978 8.022-56.884z" style="opacity:1;fill:#313131;fill-opacity:1;fill-rule:evenodd;stroke:none;stroke-width:2.79999971;stroke-linecap:round;stroke-linejoin:round;stroke-miterlimit:4;stroke-dasharray:none;stroke-dashoffset:0;stroke-opacity:1;paint-order:markers stroke fill"/><path d="M148.36 4.336c-1.789-.849-11.007 2.906-16.194 7.672-10.533 9.676-1.072 22.664-28.294 20.81 6.008 14.755 19.118 20.291 34.812 24.003-2.67-18.583 9.243-19.504 10.95-39.434.643-7.512.148-12.376-1.275-13.051z" clip-path="url(#c)" style="opacity:1;fill:#ebdccc;fill-opacity:1;fill-rule:evenodd;stroke:none;stroke-width:2.74379206;stroke-linecap:round;stroke-linejoin:round;stroke-miterlimit:4;stroke-dasharray:none;stroke-dashoffset:0;stroke-opacity:1;paint-order:markers stroke fill" transform="matrix(1.0194 0 0 1.02157 -28.902 .143)"/><g transform="translate(-26.912 .031)"><ellipse cx="108.548" cy="77.197" rx="8.802" ry="9.981" style="opacity:1;fill:#313131;fill-opacity:1;fill-rule:evenodd;stroke:none;stroke-width:2.81259012;stroke-linecap:round;stroke-linejoin:round;stroke-miterlimit:4;stroke-dasharray:none;stroke-dashoffset:0;stroke-opacity:1;paint-order:markers stroke fill" transform="matrix(.98789 -.15518 .02204 .99976 0 0)"/><ellipse cx="72.124" cy="51.886" rx="8.156" ry="9.609" style="opacity:1;fill:#313131;fill-opacity:1;fill-rule:evenodd;stroke:none;stroke-width:2.81394577;stroke-linecap:round;stroke-linejoin:round;stroke-miterlimit:4;stroke-dasharray:none;stroke-dashoffset:0;stroke-opacity:1;paint-order:markers stroke fill" transform="matrix(.99926 .03837 -.17816 .984 0 0)"/><path d="M42.18 53.016c-.51 8.834-2.352 12.24-6.803 16.02-3.576 3.036-3.639 8.113-1.819 10.716" style="display:inline;fill:none;stroke:#313131;stroke-width:4;stroke-linecap:round;stroke-linejoin:round;stroke-miterlimit:4;stroke-dasharray:none;stroke-opacity:1" transform="translate(26.912 -.031)"/><path d="M57.312 75.49c0 1.689-7.613 7.387-10.474 7.029-3.083-.386-7.027-8.012-6.416-9.582 1.552-3.987 16.89-2.097 16.89 2.554z" style="opacity:1;fill:#313131;fill-opacity:1;fill-rule:evenodd;stroke:none;stroke-width:3.80000043;stroke-linecap:round;stroke-linejoin:round;stroke-miterlimit:4;stroke-dasharray:none;stroke-dashoffset:0;stroke-opacity:1;paint-order:markers stroke fill" transform="translate(26.912 -.031)"/></g><path d="M8.978 76.899h96.873v39.652H8.978z" style="opacity:1;fill:#fff;fill-opacity:1;fill-rule:evenodd;stroke:#313131;stroke-width:4;stroke-linecap:round;stroke-linejoin:miter;stroke-miterlimit:1.5;stroke-dasharray:none;stroke-dashoffset:0;stroke-opacity:1;paint-order:fill markers stroke" transform="rotate(3.356)"/><path d="m3.382 76.46 99.03 5.66-2.515 41.281 3.395-2.323 2.381-41.138-98.406-5.728z" style="opacity:1;fill:#313131;fill-opacity:1;fill-rule:evenodd;stroke:#313131;stroke-width:3;stroke-linecap:round;stroke-linejoin:miter;stroke-miterlimit:1.5;stroke-dasharray:none;stroke-dashoffset:0;stroke-opacity:1;paint-order:fill markers stroke"/><path d="M113.115 89.12c-6.41.025-10.307-1.775-14.772 3.209-6.314 7.048-.527 17.51 9.026 19.23" style="fill:#ff8702;fill-opacity:1;stroke:#313131;stroke-width:4;stroke-linecap:round;stroke-linejoin:round;stroke-miterlimit:4;stroke-dasharray:none;stroke-opacity:1"/><text xml:space="preserve" x="12.694" y="105.091" style="font-style:normal;font-variant:normal;font-weight:400;font-stretch:normal;font-size:24.6854px;line-height:1.25;font-family:&quot;Agency FB&quot;;-inkscape-font-specification:&quot;Agency FB&quot;;letter-spacing:-.27771px;word-spacing:0;fill:#313131;fill-opacity:1;stroke:none;stroke-width:.9257" transform="matrix(.99715 .05847 -.0586 .99942 0 0)"><tspan x="12.694" y="105.091" style="font-style:normal;font-variant:normal;font-weight:700;font-stretch:normal;font-size:24.6854px;font-family:Gilroy;-inkscape-font-specification:&quot;Gilroy Bold&quot;;fill:#313131;fill-opacity:1;stroke-width:.9257">FOxID</tspan></text></svg>